<mxfile host="app.diagrams.net" agent="Mozilla/5.0 (Windows NT 10.0; Win64; x64) AppleWebKit/537.36 (KHTML, like Gecko) Chrome/130.0.0.0 Safari/537.36 OPR/115.0.0.0" version="26.0.5">
  <diagram name="Page-1" id="PB4VBSpsoKnMZAa3M8EH">
    <mxGraphModel dx="912" dy="1719" grid="1" gridSize="10" guides="1" tooltips="1" connect="1" arrows="1" fold="1" page="1" pageScale="1" pageWidth="850" pageHeight="1100" math="0" shadow="0">
      <root>
        <mxCell id="0" />
        <mxCell id="1" parent="0" />
        <mxCell id="pXv-PGPB3i6eV_hMqMwG-11" value="" style="edgeStyle=orthogonalEdgeStyle;rounded=0;orthogonalLoop=1;jettySize=auto;html=1;" edge="1" parent="1" source="pXv-PGPB3i6eV_hMqMwG-1" target="pXv-PGPB3i6eV_hMqMwG-10">
          <mxGeometry relative="1" as="geometry" />
        </mxCell>
        <mxCell id="pXv-PGPB3i6eV_hMqMwG-1" value="&lt;font face=&quot;Times New Roman&quot;&gt;Mulai&lt;/font&gt;" style="ellipse;whiteSpace=wrap;html=1;" vertex="1" parent="1">
          <mxGeometry width="120" height="80" as="geometry" />
        </mxCell>
        <mxCell id="pXv-PGPB3i6eV_hMqMwG-21" value="" style="edgeStyle=orthogonalEdgeStyle;rounded=0;orthogonalLoop=1;jettySize=auto;html=1;" edge="1" parent="1" source="pXv-PGPB3i6eV_hMqMwG-10" target="pXv-PGPB3i6eV_hMqMwG-17">
          <mxGeometry relative="1" as="geometry" />
        </mxCell>
        <mxCell id="pXv-PGPB3i6eV_hMqMwG-10" value="&lt;font face=&quot;Times New Roman&quot;&gt;User&lt;/font&gt;" style="shape=umlActor;verticalLabelPosition=bottom;verticalAlign=top;html=1;outlineConnect=0;" vertex="1" parent="1">
          <mxGeometry x="170" y="10" width="30" height="60" as="geometry" />
        </mxCell>
        <mxCell id="pXv-PGPB3i6eV_hMqMwG-23" value="" style="edgeStyle=orthogonalEdgeStyle;rounded=0;orthogonalLoop=1;jettySize=auto;html=1;" edge="1" parent="1" source="pXv-PGPB3i6eV_hMqMwG-17" target="pXv-PGPB3i6eV_hMqMwG-22">
          <mxGeometry relative="1" as="geometry" />
        </mxCell>
        <mxCell id="pXv-PGPB3i6eV_hMqMwG-25" value="" style="edgeStyle=orthogonalEdgeStyle;rounded=0;orthogonalLoop=1;jettySize=auto;html=1;" edge="1" parent="1" source="pXv-PGPB3i6eV_hMqMwG-17" target="pXv-PGPB3i6eV_hMqMwG-24">
          <mxGeometry relative="1" as="geometry" />
        </mxCell>
        <mxCell id="pXv-PGPB3i6eV_hMqMwG-17" value="&lt;font face=&quot;Times New Roman&quot;&gt;Have&lt;br&gt;Account?&lt;/font&gt;" style="rhombus;whiteSpace=wrap;html=1;rounded=0;" vertex="1" parent="1">
          <mxGeometry x="240" width="80" height="80" as="geometry" />
        </mxCell>
        <mxCell id="pXv-PGPB3i6eV_hMqMwG-61" value="" style="edgeStyle=orthogonalEdgeStyle;rounded=0;orthogonalLoop=1;jettySize=auto;html=1;" edge="1" parent="1" source="pXv-PGPB3i6eV_hMqMwG-22" target="pXv-PGPB3i6eV_hMqMwG-60">
          <mxGeometry relative="1" as="geometry" />
        </mxCell>
        <mxCell id="pXv-PGPB3i6eV_hMqMwG-22" value="Login" style="whiteSpace=wrap;html=1;rounded=0;" vertex="1" parent="1">
          <mxGeometry x="380" y="10" width="120" height="60" as="geometry" />
        </mxCell>
        <mxCell id="pXv-PGPB3i6eV_hMqMwG-45" value="" style="edgeStyle=orthogonalEdgeStyle;rounded=0;orthogonalLoop=1;jettySize=auto;html=1;" edge="1" parent="1" source="pXv-PGPB3i6eV_hMqMwG-24" target="pXv-PGPB3i6eV_hMqMwG-35">
          <mxGeometry relative="1" as="geometry" />
        </mxCell>
        <mxCell id="pXv-PGPB3i6eV_hMqMwG-24" value="&lt;font face=&quot;Times New Roman&quot;&gt;Register&lt;/font&gt;" style="whiteSpace=wrap;html=1;rounded=0;" vertex="1" parent="1">
          <mxGeometry x="220" y="170" width="120" height="60" as="geometry" />
        </mxCell>
        <mxCell id="pXv-PGPB3i6eV_hMqMwG-26" value="&lt;font face=&quot;Times New Roman&quot;&gt;Yes&lt;/font&gt;" style="text;html=1;align=center;verticalAlign=middle;resizable=0;points=[];autosize=1;strokeColor=none;fillColor=none;" vertex="1" parent="1">
          <mxGeometry x="310" y="20" width="40" height="30" as="geometry" />
        </mxCell>
        <mxCell id="pXv-PGPB3i6eV_hMqMwG-27" value="&lt;font face=&quot;Times New Roman&quot;&gt;No&lt;/font&gt;" style="text;html=1;align=center;verticalAlign=middle;resizable=0;points=[];autosize=1;strokeColor=none;fillColor=none;" vertex="1" parent="1">
          <mxGeometry x="270" y="80" width="40" height="30" as="geometry" />
        </mxCell>
        <mxCell id="pXv-PGPB3i6eV_hMqMwG-48" style="edgeStyle=orthogonalEdgeStyle;rounded=0;orthogonalLoop=1;jettySize=auto;html=1;entryX=0.5;entryY=0;entryDx=0;entryDy=0;" edge="1" parent="1" source="pXv-PGPB3i6eV_hMqMwG-29" target="pXv-PGPB3i6eV_hMqMwG-37">
          <mxGeometry relative="1" as="geometry" />
        </mxCell>
        <mxCell id="pXv-PGPB3i6eV_hMqMwG-50" style="edgeStyle=orthogonalEdgeStyle;rounded=0;orthogonalLoop=1;jettySize=auto;html=1;entryX=0;entryY=0.5;entryDx=0;entryDy=0;" edge="1" parent="1" source="pXv-PGPB3i6eV_hMqMwG-29" target="pXv-PGPB3i6eV_hMqMwG-35">
          <mxGeometry relative="1" as="geometry">
            <mxPoint x="210" y="340" as="targetPoint" />
            <Array as="points">
              <mxPoint x="160" y="510" />
              <mxPoint x="160" y="350" />
            </Array>
          </mxGeometry>
        </mxCell>
        <mxCell id="pXv-PGPB3i6eV_hMqMwG-29" value="&lt;font face=&quot;Times New Roman&quot;&gt;Email&lt;br&gt;Or&lt;br&gt;Username&lt;br&gt;Used?&lt;/font&gt;" style="rhombus;whiteSpace=wrap;html=1;rounded=0;" vertex="1" parent="1">
          <mxGeometry x="230" y="460" width="100" height="100" as="geometry" />
        </mxCell>
        <mxCell id="pXv-PGPB3i6eV_hMqMwG-46" value="" style="edgeStyle=orthogonalEdgeStyle;rounded=0;orthogonalLoop=1;jettySize=auto;html=1;" edge="1" parent="1" source="pXv-PGPB3i6eV_hMqMwG-35" target="pXv-PGPB3i6eV_hMqMwG-29">
          <mxGeometry relative="1" as="geometry" />
        </mxCell>
        <mxCell id="pXv-PGPB3i6eV_hMqMwG-35" value="&lt;font face=&quot;Times New Roman&quot;&gt;Form&lt;br&gt;User Bio&#39;s&lt;/font&gt;" style="shape=parallelogram;perimeter=parallelogramPerimeter;whiteSpace=wrap;html=1;fixedSize=1;rounded=0;" vertex="1" parent="1">
          <mxGeometry x="220" y="320" width="120" height="60" as="geometry" />
        </mxCell>
        <mxCell id="pXv-PGPB3i6eV_hMqMwG-52" style="edgeStyle=orthogonalEdgeStyle;rounded=0;orthogonalLoop=1;jettySize=auto;html=1;" edge="1" parent="1" source="pXv-PGPB3i6eV_hMqMwG-37">
          <mxGeometry relative="1" as="geometry">
            <mxPoint x="160" y="510" as="targetPoint" />
          </mxGeometry>
        </mxCell>
        <mxCell id="pXv-PGPB3i6eV_hMqMwG-54" value="" style="edgeStyle=orthogonalEdgeStyle;rounded=0;orthogonalLoop=1;jettySize=auto;html=1;" edge="1" parent="1" source="pXv-PGPB3i6eV_hMqMwG-37" target="pXv-PGPB3i6eV_hMqMwG-53">
          <mxGeometry relative="1" as="geometry" />
        </mxCell>
        <mxCell id="pXv-PGPB3i6eV_hMqMwG-37" value="&lt;font face=&quot;Times New Roman&quot;&gt;isValidInput?&lt;/font&gt;" style="rhombus;whiteSpace=wrap;html=1;rounded=0;" vertex="1" parent="1">
          <mxGeometry x="230" y="630" width="100" height="100" as="geometry" />
        </mxCell>
        <mxCell id="pXv-PGPB3i6eV_hMqMwG-39" value="&lt;font face=&quot;Times New Roman&quot;&gt;No&lt;/font&gt;" style="text;html=1;align=center;verticalAlign=middle;resizable=0;points=[];autosize=1;strokeColor=none;fillColor=none;" vertex="1" parent="1">
          <mxGeometry x="270" y="550" width="40" height="30" as="geometry" />
        </mxCell>
        <mxCell id="pXv-PGPB3i6eV_hMqMwG-43" value="&lt;font face=&quot;Times New Roman&quot;&gt;No&lt;/font&gt;" style="text;html=1;align=center;verticalAlign=middle;resizable=0;points=[];autosize=1;strokeColor=none;fillColor=none;" vertex="1" parent="1">
          <mxGeometry x="210" y="650" width="40" height="30" as="geometry" />
        </mxCell>
        <mxCell id="pXv-PGPB3i6eV_hMqMwG-51" value="&lt;font face=&quot;Times New Roman&quot;&gt;Yes&lt;/font&gt;" style="text;html=1;align=center;verticalAlign=middle;resizable=0;points=[];autosize=1;strokeColor=none;fillColor=none;" vertex="1" parent="1">
          <mxGeometry x="200" y="490" width="40" height="30" as="geometry" />
        </mxCell>
        <mxCell id="pXv-PGPB3i6eV_hMqMwG-55" style="edgeStyle=orthogonalEdgeStyle;rounded=0;orthogonalLoop=1;jettySize=auto;html=1;entryX=0.5;entryY=1;entryDx=0;entryDy=0;" edge="1" parent="1" source="pXv-PGPB3i6eV_hMqMwG-53" target="pXv-PGPB3i6eV_hMqMwG-1">
          <mxGeometry relative="1" as="geometry" />
        </mxCell>
        <mxCell id="pXv-PGPB3i6eV_hMqMwG-59" style="edgeStyle=orthogonalEdgeStyle;rounded=0;orthogonalLoop=1;jettySize=auto;html=1;entryX=0.5;entryY=1;entryDx=0;entryDy=0;" edge="1" parent="1" source="pXv-PGPB3i6eV_hMqMwG-53" target="pXv-PGPB3i6eV_hMqMwG-22">
          <mxGeometry relative="1" as="geometry" />
        </mxCell>
        <mxCell id="pXv-PGPB3i6eV_hMqMwG-53" value="&lt;font face=&quot;Times New Roman&quot;&gt;Success?&lt;/font&gt;" style="rhombus;whiteSpace=wrap;html=1;rounded=0;" vertex="1" parent="1">
          <mxGeometry x="230" y="810" width="100" height="100" as="geometry" />
        </mxCell>
        <mxCell id="pXv-PGPB3i6eV_hMqMwG-56" value="&lt;font face=&quot;Times New Roman&quot;&gt;No&lt;/font&gt;" style="text;html=1;align=center;verticalAlign=middle;resizable=0;points=[];autosize=1;strokeColor=none;fillColor=none;" vertex="1" parent="1">
          <mxGeometry x="200" y="830" width="40" height="30" as="geometry" />
        </mxCell>
        <mxCell id="pXv-PGPB3i6eV_hMqMwG-57" value="&lt;font face=&quot;Times New Roman&quot;&gt;Yes&lt;/font&gt;" style="text;html=1;align=center;verticalAlign=middle;resizable=0;points=[];autosize=1;strokeColor=none;fillColor=none;" vertex="1" parent="1">
          <mxGeometry x="270" y="730" width="40" height="30" as="geometry" />
        </mxCell>
        <mxCell id="pXv-PGPB3i6eV_hMqMwG-58" value="&lt;font face=&quot;Times New Roman&quot;&gt;Yes&lt;/font&gt;" style="text;html=1;align=center;verticalAlign=middle;resizable=0;points=[];autosize=1;strokeColor=none;fillColor=none;" vertex="1" parent="1">
          <mxGeometry x="320" y="840" width="40" height="30" as="geometry" />
        </mxCell>
        <mxCell id="pXv-PGPB3i6eV_hMqMwG-62" style="edgeStyle=orthogonalEdgeStyle;rounded=0;orthogonalLoop=1;jettySize=auto;html=1;entryX=0.5;entryY=0;entryDx=0;entryDy=0;" edge="1" parent="1" source="pXv-PGPB3i6eV_hMqMwG-60" target="pXv-PGPB3i6eV_hMqMwG-1">
          <mxGeometry relative="1" as="geometry" />
        </mxCell>
        <mxCell id="pXv-PGPB3i6eV_hMqMwG-60" value="&lt;font face=&quot;Times New Roman&quot;&gt;isValid?&lt;br&gt;&amp;amp;&amp;amp;&lt;br&gt;Success?&lt;/font&gt;" style="rhombus;whiteSpace=wrap;html=1;rounded=0;" vertex="1" parent="1">
          <mxGeometry x="390" y="-160" width="100" height="100" as="geometry" />
        </mxCell>
        <mxCell id="pXv-PGPB3i6eV_hMqMwG-63" value="&lt;font face=&quot;Times New Roman&quot;&gt;No&lt;/font&gt;" style="text;html=1;align=center;verticalAlign=middle;resizable=0;points=[];autosize=1;strokeColor=none;fillColor=none;" vertex="1" parent="1">
          <mxGeometry x="360" y="-130" width="40" height="30" as="geometry" />
        </mxCell>
        <mxCell id="pXv-PGPB3i6eV_hMqMwG-64" value="&lt;font face=&quot;Times New Roman&quot;&gt;Yes&lt;/font&gt;" style="text;html=1;align=center;verticalAlign=middle;resizable=0;points=[];autosize=1;strokeColor=none;fillColor=none;" vertex="1" parent="1">
          <mxGeometry x="480" y="-140" width="40" height="30" as="geometry" />
        </mxCell>
        <mxCell id="pXv-PGPB3i6eV_hMqMwG-65" value="&lt;font face=&quot;Times New Roman&quot;&gt;Save to $_SESSION&lt;/font&gt;" style="shape=process;whiteSpace=wrap;html=1;backgroundOutline=1;" vertex="1" parent="1">
          <mxGeometry x="510" y="-180" width="100" height="40" as="geometry" />
        </mxCell>
      </root>
    </mxGraphModel>
  </diagram>
</mxfile>
